PathFileType	4	(X/Y/Z)	C:/Users/beibeiliu/ov580/test_trc/User3\sequence.13_training_dense_left.trc
DataRate	CameraRate	NumFrames	NumMarkers	Units	OrigDataRate	OrigDataStartFrame	OrigNumFrames
120	120	21	19	mm	120	174	278
Frame#	Time	ThumbCMC			ThumbMCP			ThumbIP			ThumbTip			IndexMCP			IndexPIP			IndexTip			MiddleMCP			MiddlePIP			MiddleTip			RingMCP			RingPIP			RingTip			PinkyMCP			PinkyPIP			PinkyTip			BackHand1			BackHand2			BackHand3	
		X0	Y0	Z0	X1	Y1	Z1	X2	Y2	Z2	X3	Y3	Z3	X4	Y4	Z4	X5	Y5	Z5	X6	Y6	Z6	X7	Y7	Z7	X8	Y8	Z8	X9	Y9	Z9	X10	Y10	Z10	X11	Y11	Z11	X12	Y12	Z12	X13	Y13	Z13	X14	Y14	Z14	X15	Y15	Z15	X16	Y16	Z16	X17	Y17	Z17	X18	Y18	Z18	
173	1.44167	-155.52	-6.67039	22.6863	-140.493	-31.0865	2.8826	-153.508	-59.2708	-11.9552	-177.279	-67.1524	-3.51971	-154.357	-25.2729	-48.3303	-139.111	-33.6299	-73.294	-132.368	-42.9805	-91.2458	-180.763	-38.3426	-54.2104	-171.971	-48.7048	-80.5763	-164.045	-61.22	-108.719	-196.312	-48.467	-42.6746	-199.678	-61.5924	-63.7574	-193.534	-73.7996	-88.2946	-214.392	-61.3198	-23.6056	-215.575	-78.036	-38.4711	-222.197	-94.2986	-53.8938	-207.602	-16.0476	-4.41398	-214.948	-6.32919	18.7169	-182.219	5.45723	2.27214	
174	1.45	-153.894	-7.03393	23.8789	-140.114	-28.868	3.0053	-151.435	-57.2065	-12.9078	-176.183	-62.9946	-4.54309	-149.336	-20.4684	-45.6619	-138.341	-31.8167	-71.1204	-126.069	-39.5031	-92.4539	-177.827	-35.2111	-54.9883	-169.939	-46.3244	-81.4174	-163.788	-55.7906	-105.252	-197.266	-48.1897	-45.2439	-191.608	-57.1214	-67.2853	-191.673	-69.9643	-89.4189	-213.615	-59.6609	-24.4972	-213.429	-72.4461	-39.9125	-219.995	-88.2245	-56.3944	-209.313	-17.8888	-6.60327	-216.245	-4.8174	19.5589	-181.964	6.07523	5.33525	
175	1.45833	-152.037	-6.70399	28.6269	-135.56	-29.7549	2.01488	-151.827	-52.7509	-12.9413	-175.779	-66.4368	-10.7674	-149.325	-19.6806	-47.5174	-133.776	-23.2684	-66.8765	-121.817	-31.2158	-90.3752	-175.465	-29.4848	-56.8858	-169.122	-37.0076	-78.4893	-159.591	-45.9951	-110.187	-193.212	-41.2092	-46.6205	-188.812	-48.6458	-69.6057	-189.202	-57.0093	-90.5202	-213.855	-54.3612	-28.2048	-214.454	-65.7615	-42.8685	-220.896	-76.0221	-62.4694	-204.642	-13.0488	-1.23467	-210.88	-2.36099	20.8061	-178.926	7.55972	8.6907	
176	1.46667	-148.001	-11.1964	25.5977	-134.767	-31.6913	1.20957	-150.464	-52.1448	-16.8601	-176.181	-62.5359	-16.1818	-147.089	-16.2005	-47.1839	-134.017	-23.0854	-72.1961	-123.065	-26.9417	-90.6239	-173.052	-22.6358	-57.574	-164.611	-27.7115	-79.1925	-156.729	-32.3529	-112.5	-193.209	-33.5487	-48.2335	-193.154	-38.3252	-70.3628	-189.412	-43.4646	-98.4375	-209.773	-44.0167	-32.1458	-218.267	-56.2106	-50.4585	-224.272	-61.9695	-68.6376	-203.652	-10.0404	-2.34141	-209.473	-0.596856	22.1386	-173.736	8.19791	7.79075	
177	1.475	-143.163	-14.8551	27.6309	-134.585	-35.2654	-1.38067	-150.41	-50.3878	-21.3086	-180.791	-56.664	-21.6062	-141.626	-12.2834	-49.6284	-133.072	-17.7424	-71.0957	-120.601	-22.2294	-94.5779	-171.814	-15.1885	-54.9522	-165.239	-18.7968	-84.5237	-159.629	-22.1129	-111.78	-189.645	-22.6627	-50.7511	-192.687	-26.1561	-71.3334	-191.267	-27.5943	-100.93	-214.297	-35.2315	-29.7009	-220.704	-40.9657	-51.1671	-228.739	-43.9333	-74.1997	-200.89	-6.03753	-5.16072	-208.165	0.613178	26.8371	-172.193	8.22523	12.5458	
178	1.48333	-142.641	-20.0262	26.6372	-138.585	-34.8737	-2.48805	-152.577	-50.4516	-29.5005	-180.638	-56.3097	-29.244	-142.293	-10.6319	-46.342	-134.908	-13.4668	-72.0187	-121.019	-16.0425	-97.0213	-167.322	-7.65248	-59.0102	-162.899	-10.3025	-85.1807	-158.38	-11.2027	-113.591	-190.059	-15.1901	-49.5836	-195.322	-16.0562	-74.8414	-191.041	-14.2938	-99.9892	-216.029	-26.3828	-34.8046	-218.911	-28.8081	-51.9086	-227.018	-27.0384	-75.2062	-200.815	-4.12312	-3.11492	-201.844	3.41866	24.6278	-167.118	7.62984	14.1861	
179	1.49167	-143.581	-23.6141	28.1817	-134.646	-38.1057	-1.58626	-154.231	-48.7113	-28.3265	-178.089	-53.6372	-29.0773	-142.26	-9.45636	-51.1244	-131.337	-10.8936	-68.9198	-127.543	-13.4752	-94.4324	-167.613	-6.09181	-55.6816	-163.8	-6.97687	-80.8166	-160.705	-6.78966	-111.734	-194.584	-13.6027	-49.2597	-192.114	-11.5963	-72.0035	-192.282	-8.70523	-100.491	-216.488	-22.9163	-36.0313	-220.169	-22.6875	-55.5024	-229.281	-19.9663	-74.0771	-199.491	-2.91511	-0.0735087	-200.309	1.03678	28.6448	-167.846	4.90379	16.7661	
180	1.5	-144.497	-25.0324	25.4521	-134.571	-39.7197	-3.23735	-155.866	-50.143	-33.284	-184.451	-52.2183	-28.5195	-146.972	-10.4472	-48.1756	-135.25	-12.5629	-74.3715	-124.065	-12.7867	-95.902	-167.241	-6.65176	-59.642	-163.58	-6.25669	-85.1689	-160.169	-4.81668	-113.597	-194.472	-11.3089	-53.3568	-191.061	-10.0163	-70.8278	-193.967	-7.10626	-99.9231	-212.989	-21.676	-36.8077	-220.623	-21.4223	-53.5614	-230.227	-17.5198	-72.1996	-194.39	-1.6502	-2.31882	-202.154	2.91247	24.0003	-169.247	1.37741	15.4597	
181	1.50833	-146.074	-25.7094	23.3732	-135.78	-40.7495	-8.55214	-154.239	-51.9127	-31.3376	-185.299	-54.4264	-29.4432	-144.23	-11.5896	-52.8916	-136.977	-14.9137	-72.1518	-124.046	-15.7568	-99.1783	-171.631	-9.04568	-58.5373	-164.881	-9.65168	-81.744	-164.267	-7.346	-115.842	-196.774	-15.1886	-48.5798	-194.968	-12.0517	-75.8625	-196.376	-10.7865	-98.0406	-218.159	-25.6493	-31.9342	-220.869	-24.2036	-55.5938	-233.508	-20.8882	-73.6851	-195.863	-3.25142	-1.98278	-202.603	-0.415322	28.2869	-169.648	1.35766	10.2715	
182	1.51667	-146.499	-25.1236	26.4954	-136.35	-41.6311	-6.93312	-157.588	-55.1907	-30.2786	-184.138	-59.2988	-26.6569	-147.146	-14.112	-50.349	-137.668	-17.3457	-72.5935	-128.162	-19.4231	-99.8561	-172.466	-12.8459	-59.0777	-169.639	-14.4155	-87.6257	-167.369	-14.8722	-112.197	-192.95	-19.2722	-52.6341	-196.805	-19.0151	-75.0852	-201.484	-17.6952	-102.405	-217.85	-29.8377	-34.4023	-227.39	-32.6068	-49.7302	-236.2	-32.1454	-73.2447	-199.845	-7.55015	-1.49692	-202.286	-0.619467	28.2496	-169.744	0.683924	12.3341	
183	1.525	-147.765	-21.1493	24.7335	-135.783	-41.1549	-5.18739	-156.165	-57.0339	-25.878	-184.301	-58.7202	-16.83	-150.781	-17.8817	-53.3545	-135.941	-21.6161	-77.4662	-128.937	-24.7113	-97.5218	-177.389	-19.5212	-57.1085	-171.678	-22.5113	-87.4687	-168.436	-24.4974	-115.739	-196.891	-27.0015	-49.5845	-201.427	-28.8888	-74.3029	-201.463	-30.4108	-98.1706	-218.313	-37.8221	-30.2593	-222.997	-42.7584	-51.2253	-233.081	-42.1442	-68.3256	-198.418	-9.05602	0.0253813	-207.439	-1.57945	26.1014	-172.848	1.77427	12.4587	
184	1.53333	-146.693	-16.7058	22.0089	-135.127	-38.7583	-2.79375	-156.004	-57.5046	-18.9318	-179.338	-63.9675	-13.3676	-152.09	-22.0939	-51.3497	-139.982	-27.5449	-72.3641	-133.998	-33.1857	-96.1373	-178.175	-27.9376	-60.9673	-170.349	-30.3281	-82.2219	-167.259	-35.3093	-112.083	-199.171	-35.7204	-50.7596	-198.821	-39.6332	-71.2468	-202.637	-44.6755	-98.6555	-216.948	-46.7004	-30.2238	-221.563	-53.5553	-48.3744	-233.891	-60.3973	-64.2981	-202.714	-13.2724	-2.65816	-207.005	-4.86298	25.7763	-175.271	1.56537	7.41493	
185	1.54167	-147.878	-13.8216	24.3551	-135.269	-36.5311	-0.210016	-154.353	-59.7821	-15.8593	-179.067	-64.5263	-5.63635	-150.303	-26.7544	-52.2827	-140.202	-33.6488	-71.0745	-131.998	-41.8645	-93.134	-174.044	-32.278	-57.7694	-171.328	-41.9931	-80.1015	-166.535	-49.8013	-108.773	-195.554	-43.1762	-43.7973	-195.023	-48.5571	-66.2657	-197.131	-59.4411	-92.9277	-211.04	-52.9545	-23.8432	-221.063	-66.2919	-44.0041	-227.236	-74.3929	-59.7889	-202.962	-16.8788	-3.06007	-207.33	-6.69569	21.2229	-176.531	0.950075	5.80941	
186	1.55	-146.689	-9.35499	25.6493	-132.928	-35.7565	3.81466	-146.479	-63.191	-9.83351	-171.924	-70.8462	-2.62666	-149.295	-30.5831	-45.787	-134.932	-39.6488	-71.5438	-126.861	-47.0363	-88.235	-175.016	-40.0766	-51.5909	-165.863	-49.6317	-79.0998	-161.266	-60.0789	-105.136	-190.722	-49.9901	-45.5627	-193.609	-60.2418	-65.8984	-193.641	-74.0548	-90.781	-212.905	-62.1189	-22.8518	-214.29	-72.4453	-38.4677	-220.085	-85.8037	-58.7869	-206.761	-22.7677	-0.623836	-211.366	-7.38017	19.7257	-177.606	1.72743	7.88871	
187	1.55833	-152.191	-9.31875	28.0036	-132.49	-30.9516	9.36736	-141.317	-60.984	-5.48884	-166.337	-73.3777	-2.58726	-145.616	-33.1189	-46.167	-132.185	-38.3043	-63.3133	-120.284	-50.189	-87.684	-167.111	-42.6276	-52.9016	-163.325	-54.8846	-74.5737	-154.91	-66.8864	-99.1462	-185.5	-53.3708	-43.3434	-184.276	-64.8519	-62.7114	-184.41	-79.5144	-82.8456	-208.703	-66.5013	-20.9092	-211.771	-80.3039	-35.4845	-214.462	-95.4809	-52.4012	-199.434	-25.0678	-4.3609	-213.016	-12.1612	19.8004	-181.682	-2.56765	4.38776	
188	1.56667	-151.064	-5.77213	29.3575	-128.545	-26.9852	10.3509	-133.582	-56.1028	-5.26857	-157.33	-72.1464	-2.83162	-142.668	-30.707	-42.4144	-128.254	-36.7198	-60.5877	-117.955	-48.4358	-83.727	-168.184	-44.1684	-47.1125	-156.784	-54.385	-71.3521	-146.28	-68.429	-101.361	-184.554	-56.8468	-40.3398	-181.634	-69.1105	-60.9371	-175.434	-84.0014	-82.9943	-202.181	-68.9325	-22.3867	-206.006	-83.206	-32.3227	-208.397	-100.276	-47.3606	-203.541	-27.6397	-5.44023	-213.591	-10.2839	21.8866	-180.827	-2.37482	3.91935	
189	1.575	-151.099	-3.53837	30.0191	-130.618	-19.6982	12.2849	-122.528	-46.2278	-4.0157	-139.92	-70.7013	-9.33632	-140.824	-25.6734	-38.7318	-126.094	-33.0697	-60.7816	-114.91	-40.8456	-80.9504	-164.101	-40.9486	-47.5655	-156.41	-52.7856	-70.885	-145.959	-67.4295	-98.8765	-178.497	-54.3405	-41.4282	-178.449	-69.7922	-62.5444	-171.244	-82.7816	-84.102	-200.061	-69.2465	-22.3838	-197.707	-82.9137	-33.7136	-199.581	-101.056	-51.0049	-200.515	-22.6686	-1.42516	-214.214	-10.188	21.6775	-178.348	-0.549737	8.42919	
190	1.58333	-148.8	1.47386	30.4026	-125.388	-11.73	10.3302	-115.169	-34.5594	-8.31113	-121.561	-58.2206	-16.7572	-141.709	-24.2092	-38.8783	-129.784	-32.4975	-60.5849	-115.445	-38.2577	-84.4184	-163.132	-38.8537	-49.3356	-152.28	-48.8767	-74.603	-145.498	-63.4392	-98.879	-181.869	-55.1748	-38.2363	-174.482	-65.2257	-60.6335	-172.219	-81.8354	-83.0526	-196.389	-65.6298	-18.9333	-194.867	-82.4943	-35.9536	-196.171	-99.2205	-54.5975	-200.048	-27.7766	-4.07305	-212.397	-14.1866	19.4608	-178.547	2.82346	11.1243	
191	1.59167	-151.365	3.05903	27.1063	-126.434	0.0296667	12.1646	-110.868	-16.7635	-7.22233	-109.135	-40.0737	-21.394	-141.552	-21.8557	-42.8935	-128.463	-27.2097	-65.1647	-119.264	-35.1348	-85.7353	-163.219	-36.5419	-50.9697	-156.323	-47.4838	-73.5251	-144.775	-60.5041	-102.726	-176.609	-50.6176	-43.677	-175.417	-65.5752	-63.1601	-171.071	-80.4254	-83.9831	-192.493	-64.5081	-23.0466	-194.033	-80.1473	-36.7509	-190.829	-97.9657	-55.6518	-200.52	-24.6688	-4.77385	-211.583	-13.2356	18.5764	-182.196	1.21092	10.1877	
192	1.6	-150.772	9.65894	28.3369	-127.192	8.02067	8.35339	-110.58	-4.47768	-12.1329	-95.3035	-19.4066	-27.7278	-142.42	-18.042	-47.3158	-132.692	-26.0628	-65.1702	-117.16	-30.2518	-89.0583	-165.084	-34.751	-50.371	-156.917	-47.7794	-74.3876	-146.774	-58.3954	-101.382	-179.663	-52.2457	-43.3133	-175.765	-64.0609	-64.5599	-167.036	-77.0666	-86.9695	-195.47	-66.4791	-21.9185	-193.97	-80.9455	-36.2561	-193.115	-97.1768	-54.0451	-200.87	-23.2999	-1.64419	-210.471	-10.1054	23.587	-181.7	3.54124	9.19081	
193	1.60833	-155.709	13.6805	28.0118	-133.626	10.9089	8.65007	-112.467	6.50621	-14.7444	-94.9013	3.12518	-27.446	-145.226	-16.0434	-49.8911	-132.186	-21.8318	-68.0923	-123.312	-30.3333	-91.0319	-165.06	-35.4556	-55.5394	-158.274	-46.6325	-75.142	-147.502	-59.9089	-101.867	-181.067	-53.2115	-44.7668	-174.765	-63.9351	-64.6948	-169.645	-77.341	-82.9246	-191.938	-63.6898	-22.1244	-191.693	-82.2522	-36.2659	-189.131	-100.319	-55.3451	-202.603	-26.4313	-4.95842	-217	-14.0731	21.4535	-183.951	5.05835	7.14603	
